<mxfile host="app.diagrams.net" modified="2021-06-15T15:37:27.561Z" agent="5.0 (Linux; Android 11; SAMSUNG SM-N981U1) AppleWebKit/537.36 (KHTML, like Gecko) SamsungBrowser/14.0 Chrome/87.0.4280.141 Mobile Safari/537.36" etag="cr6CWY6oIdrOCyqlxMZ8" version="14.7.8" type="github" pages="3">
  <diagram id="cUsmYbsIQoXleu3BZiXn" name="Components">
    <mxGraphModel dx="360" dy="1490" grid="1" gridSize="10" guides="1" tooltips="1" connect="1" arrows="1" fold="1" page="1" pageScale="1" pageWidth="500" pageHeight="400" background="none" math="0" shadow="0">
      <root>
        <mxCell id="e4oQ-MVHbtJxXgLVEHaQ-0" />
        <mxCell id="KP3rZs519InisMXkgwo7-0" value="Background" style="locked=1;" parent="e4oQ-MVHbtJxXgLVEHaQ-0" visible="0" />
        <mxCell id="hDEtzCVSid6WgxcHebXe-0" value="" style="shape=image;imageAspect=0;aspect=fixed;verticalLabelPosition=bottom;verticalAlign=top;image=https://i.imgur.com/tYKkYoE.png;fillColor=#FFE45E;strokeColor=#FF6392;fontColor=#5AA9E6;movable=1;resizable=1;rotatable=1;deletable=1;editable=1;connectable=1;" parent="KP3rZs519InisMXkgwo7-0" vertex="1">
          <mxGeometry y="-790" width="451" height="338" as="geometry" />
        </mxCell>
        <mxCell id="e4oQ-MVHbtJxXgLVEHaQ-1" value="Top" parent="e4oQ-MVHbtJxXgLVEHaQ-0" />
        <mxCell id="Rcjt6SuNWAz-b928j4II-2" value="" style="shape=image;imageAspect=0;aspect=fixed;verticalLabelPosition=bottom;verticalAlign=top;image=https://www.dropbox.com/s/pebixwyyk58lvmy/hex2.png?raw=1;rotation=0;fillColor=#FFE45E;strokeColor=#FF6392;fontColor=#5AA9E6;" parent="e4oQ-MVHbtJxXgLVEHaQ-1" vertex="1">
          <mxGeometry x="265" y="-740" width="30" height="30" as="geometry" />
        </mxCell>
        <mxCell id="FK3RDw9EX9j8nlZmQKlj-2" value="Player markers x40" style="whiteSpace=wrap;html=1;strokeWidth=2;shadow=1;glass=0;perimeterSpacing=2;fontSize=20;fontColor=#0000FF;strokeColor=#FF6392;fillColor=#FFE45E;" parent="e4oQ-MVHbtJxXgLVEHaQ-1" vertex="1">
          <mxGeometry x="279.66" y="-570" width="120.34" height="50" as="geometry" />
        </mxCell>
        <mxCell id="juLowp8Fubmo-fcw9Sdr-1" value="" style="shape=image;imageAspect=0;aspect=fixed;verticalLabelPosition=bottom;verticalAlign=top;image=https://www.dropbox.com/s/siks3g2ldduo25m/hex4.png?raw=1;rotation=0;fillColor=#FFE45E;strokeColor=#FF6392;fontColor=#5AA9E6;" parent="e4oQ-MVHbtJxXgLVEHaQ-1" vertex="1">
          <mxGeometry x="285" y="-730" width="30" height="30" as="geometry" />
        </mxCell>
        <mxCell id="eM2xXsh41QmdOAph60cg-1" value="" style="shape=image;imageAspect=0;aspect=fixed;verticalLabelPosition=bottom;verticalAlign=top;image=https://www.dropbox.com/s/pf8sp4f23fy1f1y/board.png?raw=1;" parent="e4oQ-MVHbtJxXgLVEHaQ-1" vertex="1">
          <mxGeometry x="19.999999999999996" y="-780" width="213.34" height="160" as="geometry" />
        </mxCell>
        <mxCell id="Rcjt6SuNWAz-b928j4II-0" value="" style="shape=image;imageAspect=0;aspect=fixed;verticalLabelPosition=bottom;verticalAlign=top;image=https://www.dropbox.com/s/jobrnx7mkyfnxt4/playerboard.png?raw=1;rotation=0;fillColor=#FFE45E;strokeColor=#FF6392;fontColor=#5AA9E6;strokeWidth=1;imageBorder=#000000;movable=1;resizable=1;rotatable=1;deletable=1;editable=1;connectable=1;" parent="e4oQ-MVHbtJxXgLVEHaQ-1" vertex="1">
          <mxGeometry x="100" y="-600" width="110" height="110" as="geometry" />
        </mxCell>
        <mxCell id="ZL-jeLQbAdmLRUNlo4EE-4" value="" style="shape=image;imageAspect=0;aspect=fixed;verticalLabelPosition=bottom;verticalAlign=top;image=https://www.dropbox.com/s/jobrnx7mkyfnxt4/playerboard.png?raw=1;rotation=15;fillColor=#FFE45E;strokeColor=#FF6392;fontColor=#5AA9E6;strokeWidth=1;imageBorder=#000000;movable=1;resizable=1;rotatable=1;deletable=1;editable=1;connectable=1;" parent="e4oQ-MVHbtJxXgLVEHaQ-1" vertex="1">
          <mxGeometry x="150" y="-620" width="100" height="100" as="geometry" />
        </mxCell>
        <mxCell id="PJR_RUovuy1e5XtulSd6-1" value="Player boards x2" style="whiteSpace=wrap;html=1;strokeWidth=2;shadow=1;glass=0;perimeterSpacing=2;fontSize=20;labelBackgroundColor=none;labelBorderColor=none;fontFamily=Helvetica;fillColor=#FFE45E;align=center;fontColor=#0000FF;strokeColor=#FF6392;" parent="e4oQ-MVHbtJxXgLVEHaQ-1" vertex="1">
          <mxGeometry x="10" y="-585" width="110.34" height="45" as="geometry" />
        </mxCell>
        <mxCell id="ZL-jeLQbAdmLRUNlo4EE-9" value="Central Board x1" style="whiteSpace=wrap;html=1;strokeColor=#FF6392;strokeWidth=2;shadow=1;glass=0;perimeterSpacing=2;fontSize=20;fontColor=#0000FF;treeMoving=0;treeFolding=0;noLabel=0;strokeOpacity=100;fillColor=#FFE45E;" parent="e4oQ-MVHbtJxXgLVEHaQ-1" vertex="1">
          <mxGeometry x="10" y="-790" width="90" height="50" as="geometry" />
        </mxCell>
        <mxCell id="FK3RDw9EX9j8nlZmQKlj-0" value="" style="shape=image;imageAspect=0;aspect=fixed;verticalLabelPosition=bottom;verticalAlign=top;strokeWidth=5;image=https://www.dropbox.com/s/zuvkckeiljfnaek/bluediscs.png?raw=1;rotation=0;fillColor=#FFE45E;strokeColor=#FF6392;fontColor=#5AA9E6;" parent="e4oQ-MVHbtJxXgLVEHaQ-1" vertex="1">
          <mxGeometry x="340" y="-540" width="60" height="60" as="geometry" />
        </mxCell>
        <mxCell id="FK3RDw9EX9j8nlZmQKlj-1" value="" style="shape=image;imageAspect=0;aspect=fixed;verticalLabelPosition=bottom;verticalAlign=top;strokeWidth=5;image=https://www.dropbox.com/s/1vj1kfqmghnfwfw/reddiscs.png?raw=1;rotation=0;fillColor=#FFE45E;strokeColor=#FF6392;fontColor=#5AA9E6;" parent="e4oQ-MVHbtJxXgLVEHaQ-1" vertex="1">
          <mxGeometry x="265" y="-540" width="60" height="60" as="geometry" />
        </mxCell>
        <mxCell id="Rcjt6SuNWAz-b928j4II-1" value="" style="shape=image;imageAspect=0;aspect=fixed;verticalLabelPosition=bottom;verticalAlign=top;image=https://www.dropbox.com/s/6q20cw2063kjn8f/hex1.png?raw=1;rotation=0;fillColor=#FFE45E;strokeColor=#FF6392;fontColor=#5AA9E6;" parent="e4oQ-MVHbtJxXgLVEHaQ-1" vertex="1">
          <mxGeometry x="305" y="-740" width="30" height="30" as="geometry" />
        </mxCell>
        <mxCell id="juLowp8Fubmo-fcw9Sdr-2" value="" style="shape=image;imageAspect=0;aspect=fixed;verticalLabelPosition=bottom;verticalAlign=top;image=https://www.dropbox.com/s/i9133y6cre3vu0k/hex5.png?raw=1;rotation=0;fillColor=#FFE45E;strokeColor=#FF6392;fontColor=#5AA9E6;" parent="e4oQ-MVHbtJxXgLVEHaQ-1" vertex="1">
          <mxGeometry x="324.83" y="-730" width="30" height="30" as="geometry" />
        </mxCell>
        <mxCell id="juLowp8Fubmo-fcw9Sdr-0" value="" style="shape=image;imageAspect=0;aspect=fixed;verticalLabelPosition=bottom;verticalAlign=top;image=https://www.dropbox.com/s/yfrlh3feus0syb1/hex3.png?raw=1;rotation=0;fillColor=#FFE45E;strokeColor=#FF6392;fontColor=#5AA9E6;" parent="e4oQ-MVHbtJxXgLVEHaQ-1" vertex="1">
          <mxGeometry x="350" y="-730" width="30" height="30" as="geometry" />
        </mxCell>
        <mxCell id="juLowp8Fubmo-fcw9Sdr-3" value="" style="shape=image;imageAspect=0;aspect=fixed;verticalLabelPosition=bottom;verticalAlign=top;image=https://www.dropbox.com/s/zylyxe8idgnuj88/hex6.png?raw=1;rotation=0;fillColor=#FFE45E;strokeColor=#FF6392;fontColor=#5AA9E6;" parent="e4oQ-MVHbtJxXgLVEHaQ-1" vertex="1">
          <mxGeometry x="365" y="-720" width="30" height="30" as="geometry" />
        </mxCell>
        <mxCell id="PJR_RUovuy1e5XtulSd6-3" value="Job tiles x6" style="whiteSpace=wrap;html=1;strokeColor=#FF6392;fillColor=#FFE45E;fontColor=#0000FF;strokeWidth=2;shadow=1;glass=0;perimeterSpacing=2;fontSize=20;" parent="e4oQ-MVHbtJxXgLVEHaQ-1" vertex="1">
          <mxGeometry x="285" y="-780" width="105" height="30" as="geometry" />
        </mxCell>
        <mxCell id="ZL-jeLQbAdmLRUNlo4EE-14" value="" style="shape=image;imageAspect=0;aspect=fixed;verticalLabelPosition=bottom;verticalAlign=top;fontColor=#5AA9E6;strokeColor=#FF6392;fillColor=#FFE45E;image=https://www.dropbox.com/s/9basm47156hjjo8/extileback.png?raw=1;rotation=0;" parent="e4oQ-MVHbtJxXgLVEHaQ-1" vertex="1">
          <mxGeometry x="295" y="-640" width="40" height="40" as="geometry" />
        </mxCell>
        <mxCell id="ZL-jeLQbAdmLRUNlo4EE-12" value="" style="shape=image;imageAspect=0;aspect=fixed;verticalLabelPosition=bottom;verticalAlign=top;fontColor=#5AA9E6;strokeColor=#FF6392;fillColor=#FFE45E;image=https://www.dropbox.com/s/sazn1hvbwv4twq0/get%20even%20tiles_1.png?raw=1;rotation=30;" parent="e4oQ-MVHbtJxXgLVEHaQ-1" vertex="1">
          <mxGeometry x="346.83" y="-638.17" width="40" height="40" as="geometry" />
        </mxCell>
        <mxCell id="ZL-jeLQbAdmLRUNlo4EE-15" value="Tiles x80" style="whiteSpace=wrap;html=1;strokeColor=#FF6392;fillColor=#FFE45E;fontColor=#0000FF;strokeWidth=2;shadow=1;glass=0;perimeterSpacing=2;fontSize=20;" parent="e4oQ-MVHbtJxXgLVEHaQ-1" vertex="1">
          <mxGeometry x="289.83" y="-680" width="100" height="27.5" as="geometry" />
        </mxCell>
      </root>
    </mxGraphModel>
  </diagram>
  <diagram id="R-E_kHjS5HwIhv0Ph6iu" name="Ex take a tile">
    <mxGraphModel dx="914" dy="1886" grid="1" gridSize="11" guides="1" tooltips="1" connect="1" arrows="1" fold="1" page="1" pageScale="1" pageWidth="400" pageHeight="300" math="0" shadow="0">
      <root>
        <mxCell id="uEohSI7diEvnXm6D6p2L-0" />
        <mxCell id="uEohSI7diEvnXm6D6p2L-1" value="Take" style="" parent="uEohSI7diEvnXm6D6p2L-0" />
        <mxCell id="dw0rwsleEc50SECJPTvU-4" value="" style="rounded=0;whiteSpace=wrap;html=1;comic=1;fillColor=none;image=https://www.dropbox.com/s/pf8sp4f23fy1f1y/board.png?raw=1;imageWidth=400;imageHeight=300;imageAlign=right;imageVerticalAlign=bottom;strokeColor=none;" parent="uEohSI7diEvnXm6D6p2L-1" vertex="1">
          <mxGeometry x="-400" y="-900" width="120" height="106" as="geometry" />
        </mxCell>
        <mxCell id="46YjqKfpD_FIAhsMTich-0" value="" style="shape=image;imageAspect=0;aspect=fixed;verticalLabelPosition=bottom;verticalAlign=top;fontSize=20;image=https://www.dropbox.com/s/sazn1hvbwv4twq0/get%20even%20tiles_1.png?raw=1;" parent="uEohSI7diEvnXm6D6p2L-1" vertex="1">
          <mxGeometry x="-385" y="-858" width="30" height="30" as="geometry" />
        </mxCell>
        <mxCell id="46YjqKfpD_FIAhsMTich-1" value="" style="shape=image;imageAspect=0;aspect=fixed;verticalLabelPosition=bottom;verticalAlign=top;fontSize=20;image=https://www.dropbox.com/s/sazn1hvbwv4twq0/get%20even%20tiles_1.png?raw=1;" parent="uEohSI7diEvnXm6D6p2L-1" vertex="1">
          <mxGeometry x="-341" y="-858" width="30" height="30" as="geometry" />
        </mxCell>
        <mxCell id="46YjqKfpD_FIAhsMTich-3" value="" style="shape=image;html=1;verticalAlign=top;verticalLabelPosition=bottom;labelBackgroundColor=#ffffff;imageAspect=0;aspect=fixed;image=https://cdn0.iconfinder.com/data/icons/zondicons/20/hand-stop-128.png;fontSize=20;sketch=1;" parent="uEohSI7diEvnXm6D6p2L-1" vertex="1">
          <mxGeometry x="-365" y="-836.5" width="58" height="58" as="geometry" />
        </mxCell>
        <mxCell id="bvyzTVvudUqAzsHrhotj-0" value="Place" parent="uEohSI7diEvnXm6D6p2L-0" />
        <mxCell id="dw0rwsleEc50SECJPTvU-0" value="" style="rounded=0;whiteSpace=wrap;html=1;comic=1;fillColor=none;image=https://www.dropbox.com/s/jobrnx7mkyfnxt4/playerboard.png?raw=1;imageWidth=150;imageHeight=150;strokeColor=none;" parent="bvyzTVvudUqAzsHrhotj-0" vertex="1">
          <mxGeometry x="-242" y="-900" width="112" height="99" as="geometry" />
        </mxCell>
        <mxCell id="bvyzTVvudUqAzsHrhotj-3" value="" style="shape=image;imageAspect=0;aspect=fixed;verticalLabelPosition=bottom;verticalAlign=top;fontSize=20;image=https://www.dropbox.com/s/sazn1hvbwv4twq0/get%20even%20tiles_1.png?raw=1;" parent="bvyzTVvudUqAzsHrhotj-0" vertex="1">
          <mxGeometry x="-217" y="-880" width="35" height="35" as="geometry" />
        </mxCell>
        <mxCell id="bvyzTVvudUqAzsHrhotj-2" value="" style="shape=image;html=1;verticalAlign=top;verticalLabelPosition=bottom;labelBackgroundColor=#ffffff;imageAspect=0;aspect=fixed;image=https://cdn0.iconfinder.com/data/icons/zondicons/20/hand-stop-128.png;fontSize=20;sketch=1;rotation=45;" parent="bvyzTVvudUqAzsHrhotj-0" vertex="1">
          <mxGeometry x="-253" y="-858" width="55" height="55" as="geometry" />
        </mxCell>
      </root>
    </mxGraphModel>
  </diagram>
  <diagram id="npkCKzbvRsJSiZT_UGCX" name="Score Request">
    <mxGraphModel dx="560" dy="590" grid="1" gridSize="10" guides="1" tooltips="1" connect="1" arrows="1" fold="1" page="1" pageScale="1" pageWidth="200" pageHeight="100" math="0" shadow="0">
      <root>
        <mxCell id="Am3xBZ7nVeLZ5ZNw9XXG-0" />
        <mxCell id="Am3xBZ7nVeLZ5ZNw9XXG-1" parent="Am3xBZ7nVeLZ5ZNw9XXG-0" />
        <mxCell id="r2px-osZDt2zer3GvTi1-0" value="" style="rounded=0;whiteSpace=wrap;html=1;fillColor=none;strokeColor=none;image=https://www.dropbox.com/s/pf8sp4f23fy1f1y/board.png?raw=1;imageWidth=400;imageHeight=300;imageVerticalAlign=top;" vertex="1" parent="Am3xBZ7nVeLZ5ZNw9XXG-1">
          <mxGeometry x="160" y="115" width="90" height="95" as="geometry" />
        </mxCell>
        <mxCell id="1ieoMpr1ObzQHeNaHPMi-0" value="" style="rounded=0;whiteSpace=wrap;html=1;fillColor=none;strokeColor=none;image=https://www.dropbox.com/s/jobrnx7mkyfnxt4/playerboard.png?raw=1;imageWidth=150;imageHeight=150;imageAlign=center;imageVerticalAlign=top;" vertex="1" parent="Am3xBZ7nVeLZ5ZNw9XXG-1">
          <mxGeometry y="115" width="120" height="95" as="geometry" />
        </mxCell>
        <mxCell id="FPtocdrqp9JsCkfCQJSN-0" value="" style="shape=image;imageAspect=0;aspect=fixed;verticalLabelPosition=bottom;verticalAlign=top;fillColor=none;image=https://www.dropbox.com/s/9basm47156hjjo8/extileback.png?raw=1;" vertex="1" parent="Am3xBZ7nVeLZ5ZNw9XXG-1">
          <mxGeometry x="100" y="115" width="40" height="40" as="geometry" />
        </mxCell>
        <mxCell id="FPtocdrqp9JsCkfCQJSN-1" value="" style="shape=image;imageAspect=0;aspect=fixed;verticalLabelPosition=bottom;verticalAlign=top;fillColor=none;image=https://www.dropbox.com/s/9basm47156hjjo8/extileback.png?raw=1;" vertex="1" parent="Am3xBZ7nVeLZ5ZNw9XXG-1">
          <mxGeometry x="110" y="125" width="40" height="40" as="geometry" />
        </mxCell>
        <mxCell id="FPtocdrqp9JsCkfCQJSN-2" value="" style="shape=image;imageAspect=0;aspect=fixed;verticalLabelPosition=bottom;verticalAlign=top;fillColor=none;image=https://www.dropbox.com/s/9basm47156hjjo8/extileback.png?raw=1;" vertex="1" parent="Am3xBZ7nVeLZ5ZNw9XXG-1">
          <mxGeometry x="-20" y="115" width="40" height="40" as="geometry" />
        </mxCell>
      </root>
    </mxGraphModel>
  </diagram>
</mxfile>
